<?xml version="1.0" standalone="no"?>
<!DOCTYPE svg PUBLIC "-//W3C//DTD SVG 20010904//EN"
 "http://www.w3.org/TR/2001/REC-SVG-20010904/DTD/svg10.dtd">
<svg version="1.0" xmlns="http://www.w3.org/2000/svg"
 width="483.000000pt" height="314.000000pt" viewBox="0 0 483.000000 314.000000"
 preserveAspectRatio="xMidYMid meet">

<g transform="translate(0.000000,314.000000) scale(0.100000,-0.100000)"
fill="#000000" stroke="none">
<path d="M1780 2774 c-104 -18 -164 -54 -214 -127 -46 -69 -55 -105 -125 -502
-76 -427 -78 -438 -103 -464 -33 -36 -63 -42 -135 -30 -35 6 -66 9 -68 7 -8
-7 -33 -152 -29 -160 3 -4 26 -10 52 -14 26 -3 61 -13 79 -21 31 -14 63 -64
63 -97 0 -9 -32 -200 -71 -424 -77 -443 -79 -476 -38 -573 29 -66 105 -132
184 -159 144 -50 154 -50 1055 -50 793 0 850 2 930 19 115 26 175 55 230 110
59 59 84 128 83 226 -1 39 -31 239 -68 445 -41 234 -65 391 -62 417 7 62 33
83 130 103 43 9 57 16 57 29 0 29 -21 136 -29 143 -4 4 -35 3 -70 -3 -76 -14
-121 2 -146 51 -9 18 -32 120 -51 228 -19 108 -45 260 -58 337 -53 301 -69
349 -143 423 -61 60 -124 82 -237 82 -89 -1 -201 -20 -201 -35 2 -36 18 -133
24 -144 6 -9 22 -10 73 -1 134 24 214 -29 246 -160 10 -40 83 -467 112 -655
23 -144 60 -213 128 -242 34 -14 34 -14 13 -29 -34 -24 -61 -88 -61 -143 0
-28 9 -96 19 -153 10 -57 28 -157 40 -223 11 -66 32 -183 46 -259 39 -219 32
-288 -36 -338 -66 -48 -64 -48 -976 -48 -758 0 -866 2 -913 16 -66 19 -113 64
-131 123 -14 46 -16 27 57 446 69 393 75 430 69 469 -7 43 -48 116 -65 116
-19 0 -10 19 13 26 27 8 66 38 84 63 17 26 42 121 53 206 13 109 109 642 121
672 19 50 58 91 104 109 44 16 53 16 180 1 17 -2 22 7 32 53 21 104 21 106
-44 119 -71 13 -169 21 -203 15z"/>
<path d="M2125 1635 c-31 -32 -35 -41 -35 -90 0 -30 4 -55 9 -55 5 0 11 -8 13
-18 6 -22 65 -52 102 -52 77 0 133 67 122 146 -9 68 -54 104 -130 104 -39 0
-51 -5 -81 -35z"/>
<path d="M2530 1469 c-46 -28 -66 -53 -81 -96 -34 -104 52 -223 161 -223 46 0
111 33 140 72 42 56 37 157 -9 212 -47 55 -150 72 -211 35z"/>
</g>
</svg>
